<mxfile host="app.diagrams.net" modified="2022-10-09T13:22:20.755Z" agent="5.0 (X11; Ubuntu)" etag="7U3qYvpYhXhSiHcW0zAF" version="20.4.0" type="github">
  <diagram name="Page-1" id="16e2658f-23c8-b752-8be9-c03fbebb8bbe">
    <mxGraphModel dx="981" dy="529" grid="1" gridSize="10" guides="1" tooltips="1" connect="1" arrows="1" fold="1" page="1" pageScale="1" pageWidth="4681" pageHeight="3300" background="none" math="0" shadow="0">
      <root>
        <mxCell id="0" />
        <mxCell id="1" parent="0" />
        <mxCell id="6sGDjz0e17xrkzqmoAEd-8" style="edgeStyle=orthogonalEdgeStyle;rounded=0;orthogonalLoop=1;jettySize=auto;html=1;exitX=0;exitY=0.5;exitDx=0;exitDy=0;exitPerimeter=0;entryX=0;entryY=0.5;entryDx=0;entryDy=0;entryPerimeter=0;endArrow=none;endFill=0;" edge="1" parent="1" source="6sGDjz0e17xrkzqmoAEd-1" target="6sGDjz0e17xrkzqmoAEd-7">
          <mxGeometry relative="1" as="geometry">
            <Array as="points">
              <mxPoint x="280" y="320" />
              <mxPoint x="680" y="320" />
            </Array>
          </mxGeometry>
        </mxCell>
        <mxCell id="6sGDjz0e17xrkzqmoAEd-1" value="" style="pointerEvents=1;verticalLabelPosition=bottom;shadow=0;dashed=0;align=center;html=1;verticalAlign=top;shape=mxgraph.electrical.signal_sources.source;aspect=fixed;points=[[0.5,0,0],[1,0.5,0],[0.5,1,0],[0,0.5,0]];elSignalType=dc1;fillColor=none;rotation=-90;" vertex="1" parent="1">
          <mxGeometry x="250" y="220" width="60" height="60" as="geometry" />
        </mxCell>
        <mxCell id="6sGDjz0e17xrkzqmoAEd-9" style="edgeStyle=orthogonalEdgeStyle;rounded=0;orthogonalLoop=1;jettySize=auto;html=1;exitX=1;exitY=0.5;exitDx=0;exitDy=0;exitPerimeter=0;endArrow=none;endFill=0;" edge="1" parent="1" source="6sGDjz0e17xrkzqmoAEd-2">
          <mxGeometry relative="1" as="geometry">
            <mxPoint x="480.1428571428571" y="320" as="targetPoint" />
          </mxGeometry>
        </mxCell>
        <mxCell id="6sGDjz0e17xrkzqmoAEd-12" style="edgeStyle=orthogonalEdgeStyle;rounded=0;orthogonalLoop=1;jettySize=auto;html=1;exitX=0;exitY=0.5;exitDx=0;exitDy=0;exitPerimeter=0;endArrow=none;endFill=0;" edge="1" parent="1" source="6sGDjz0e17xrkzqmoAEd-2">
          <mxGeometry relative="1" as="geometry">
            <mxPoint x="480.1428571428571" y="120" as="targetPoint" />
          </mxGeometry>
        </mxCell>
        <mxCell id="6sGDjz0e17xrkzqmoAEd-2" value="" style="pointerEvents=1;verticalLabelPosition=bottom;shadow=0;dashed=0;align=center;html=1;verticalAlign=top;shape=mxgraph.electrical.resistors.resistor_1;fillColor=none;rotation=90;" vertex="1" parent="1">
          <mxGeometry x="430" y="190" width="100" height="20" as="geometry" />
        </mxCell>
        <mxCell id="6sGDjz0e17xrkzqmoAEd-6" style="edgeStyle=orthogonalEdgeStyle;rounded=0;orthogonalLoop=1;jettySize=auto;html=1;exitX=0;exitY=0.5;exitDx=0;exitDy=0;exitPerimeter=0;entryX=1;entryY=0.5;entryDx=0;entryDy=0;entryPerimeter=0;endArrow=none;endFill=0;" edge="1" parent="1" source="6sGDjz0e17xrkzqmoAEd-3" target="6sGDjz0e17xrkzqmoAEd-1">
          <mxGeometry relative="1" as="geometry">
            <Array as="points">
              <mxPoint x="280" y="150" />
              <mxPoint x="280" y="150" />
            </Array>
          </mxGeometry>
        </mxCell>
        <mxCell id="6sGDjz0e17xrkzqmoAEd-10" style="edgeStyle=orthogonalEdgeStyle;rounded=0;orthogonalLoop=1;jettySize=auto;html=1;exitX=1;exitY=0.5;exitDx=0;exitDy=0;exitPerimeter=0;entryX=0;entryY=0.5;entryDx=0;entryDy=0;entryPerimeter=0;endArrow=none;endFill=0;" edge="1" parent="1" source="6sGDjz0e17xrkzqmoAEd-3" target="6sGDjz0e17xrkzqmoAEd-5">
          <mxGeometry relative="1" as="geometry" />
        </mxCell>
        <mxCell id="6sGDjz0e17xrkzqmoAEd-3" value="" style="pointerEvents=1;verticalLabelPosition=bottom;shadow=0;dashed=0;align=center;html=1;verticalAlign=top;shape=mxgraph.electrical.resistors.resistor_1;fillColor=none;rotation=0;" vertex="1" parent="1">
          <mxGeometry x="320" y="110" width="100" height="20" as="geometry" />
        </mxCell>
        <mxCell id="6sGDjz0e17xrkzqmoAEd-11" style="edgeStyle=orthogonalEdgeStyle;rounded=0;orthogonalLoop=1;jettySize=auto;html=1;exitX=1;exitY=0.5;exitDx=0;exitDy=0;exitPerimeter=0;entryX=1;entryY=0.5;entryDx=0;entryDy=0;entryPerimeter=0;endArrow=none;endFill=0;" edge="1" parent="1" source="6sGDjz0e17xrkzqmoAEd-5" target="6sGDjz0e17xrkzqmoAEd-7">
          <mxGeometry relative="1" as="geometry">
            <Array as="points">
              <mxPoint x="680" y="150" />
              <mxPoint x="680" y="150" />
            </Array>
          </mxGeometry>
        </mxCell>
        <mxCell id="6sGDjz0e17xrkzqmoAEd-5" value="" style="pointerEvents=1;verticalLabelPosition=bottom;shadow=0;dashed=0;align=center;html=1;verticalAlign=top;shape=mxgraph.electrical.resistors.resistor_1;fillColor=none;rotation=0;" vertex="1" parent="1">
          <mxGeometry x="540" y="110" width="100" height="20" as="geometry" />
        </mxCell>
        <mxCell id="6sGDjz0e17xrkzqmoAEd-7" value="" style="pointerEvents=1;verticalLabelPosition=bottom;shadow=0;dashed=0;align=center;html=1;verticalAlign=top;shape=mxgraph.electrical.signal_sources.source;aspect=fixed;points=[[0.5,0,0],[1,0.5,0],[0.5,1,0],[0,0.5,0]];elSignalType=dc1;fillColor=none;rotation=-90;" vertex="1" parent="1">
          <mxGeometry x="650" y="220" width="60" height="60" as="geometry" />
        </mxCell>
        <mxCell id="6sGDjz0e17xrkzqmoAEd-22" value="" style="group" vertex="1" connectable="0" parent="1">
          <mxGeometry x="300" y="80" width="20" height="40" as="geometry" />
        </mxCell>
        <mxCell id="6sGDjz0e17xrkzqmoAEd-19" value="" style="endArrow=none;html=1;rounded=0;" edge="1" parent="6sGDjz0e17xrkzqmoAEd-22">
          <mxGeometry width="50" height="50" relative="1" as="geometry">
            <mxPoint x="10" y="20" as="sourcePoint" />
            <mxPoint x="20" as="targetPoint" />
          </mxGeometry>
        </mxCell>
        <mxCell id="6sGDjz0e17xrkzqmoAEd-20" value="" style="endArrow=none;html=1;rounded=0;" edge="1" parent="6sGDjz0e17xrkzqmoAEd-22">
          <mxGeometry width="50" height="50" relative="1" as="geometry">
            <mxPoint as="sourcePoint" />
            <mxPoint x="9.999999999999943" y="20" as="targetPoint" />
          </mxGeometry>
        </mxCell>
        <mxCell id="6sGDjz0e17xrkzqmoAEd-21" value="" style="endArrow=none;html=1;rounded=0;" edge="1" parent="6sGDjz0e17xrkzqmoAEd-22">
          <mxGeometry width="50" height="50" relative="1" as="geometry">
            <mxPoint x="10" y="40" as="sourcePoint" />
            <mxPoint x="10" y="20" as="targetPoint" />
          </mxGeometry>
        </mxCell>
        <mxCell id="6sGDjz0e17xrkzqmoAEd-23" value="" style="group" vertex="1" connectable="0" parent="1">
          <mxGeometry x="410" y="80" width="20" height="40" as="geometry" />
        </mxCell>
        <mxCell id="6sGDjz0e17xrkzqmoAEd-24" value="" style="endArrow=none;html=1;rounded=0;" edge="1" parent="6sGDjz0e17xrkzqmoAEd-23">
          <mxGeometry width="50" height="50" relative="1" as="geometry">
            <mxPoint x="10" y="20" as="sourcePoint" />
            <mxPoint x="20" as="targetPoint" />
          </mxGeometry>
        </mxCell>
        <mxCell id="6sGDjz0e17xrkzqmoAEd-25" value="" style="endArrow=none;html=1;rounded=0;" edge="1" parent="6sGDjz0e17xrkzqmoAEd-23">
          <mxGeometry width="50" height="50" relative="1" as="geometry">
            <mxPoint as="sourcePoint" />
            <mxPoint x="9.999999999999943" y="20" as="targetPoint" />
          </mxGeometry>
        </mxCell>
        <mxCell id="6sGDjz0e17xrkzqmoAEd-26" value="" style="endArrow=none;html=1;rounded=0;" edge="1" parent="6sGDjz0e17xrkzqmoAEd-23">
          <mxGeometry width="50" height="50" relative="1" as="geometry">
            <mxPoint x="10" y="40" as="sourcePoint" />
            <mxPoint x="10" y="20" as="targetPoint" />
          </mxGeometry>
        </mxCell>
        <mxCell id="6sGDjz0e17xrkzqmoAEd-37" value="" style="group" vertex="1" connectable="0" parent="1">
          <mxGeometry x="790" y="130" width="100" height="80" as="geometry" />
        </mxCell>
        <mxCell id="6sGDjz0e17xrkzqmoAEd-18" value="" style="endArrow=open;html=1;strokeWidth=1;endFill=0;endSize=20;rounded=0;" edge="1" parent="6sGDjz0e17xrkzqmoAEd-37">
          <mxGeometry width="100" relative="1" as="geometry">
            <mxPoint y="30" as="sourcePoint" />
            <mxPoint y="80" as="targetPoint" />
          </mxGeometry>
        </mxCell>
        <mxCell id="6sGDjz0e17xrkzqmoAEd-28" value="&lt;font style=&quot;font-size: 30px;&quot;&gt;PV&lt;/font&gt;" style="verticalLabelPosition=middle;shadow=0;dashed=0;align=center;html=1;verticalAlign=middle;strokeWidth=1;shape=ellipse;aspect=fixed;fontSize=50;fillColor=none;" vertex="1" parent="6sGDjz0e17xrkzqmoAEd-37">
          <mxGeometry x="20" width="60" height="60" as="geometry" />
        </mxCell>
        <mxCell id="6sGDjz0e17xrkzqmoAEd-30" value="" style="endArrow=open;html=1;strokeWidth=1;endFill=0;endSize=20;rounded=0;" edge="1" parent="6sGDjz0e17xrkzqmoAEd-37">
          <mxGeometry width="100" relative="1" as="geometry">
            <mxPoint x="100" y="30" as="sourcePoint" />
            <mxPoint x="100" y="80" as="targetPoint" />
          </mxGeometry>
        </mxCell>
        <mxCell id="6sGDjz0e17xrkzqmoAEd-35" value="" style="endArrow=none;html=1;rounded=0;fontSize=30;entryX=0;entryY=0.5;entryDx=0;entryDy=0;" edge="1" parent="6sGDjz0e17xrkzqmoAEd-37">
          <mxGeometry width="50" height="50" relative="1" as="geometry">
            <mxPoint y="29.919999999999987" as="sourcePoint" />
            <mxPoint x="20" y="29.919999999999987" as="targetPoint" />
          </mxGeometry>
        </mxCell>
        <mxCell id="6sGDjz0e17xrkzqmoAEd-36" value="" style="endArrow=none;html=1;rounded=0;fontSize=30;entryX=0;entryY=0.5;entryDx=0;entryDy=0;" edge="1" parent="6sGDjz0e17xrkzqmoAEd-37">
          <mxGeometry width="50" height="50" relative="1" as="geometry">
            <mxPoint x="80" y="29.91999999999996" as="sourcePoint" />
            <mxPoint x="100" y="29.91999999999996" as="targetPoint" />
          </mxGeometry>
        </mxCell>
        <mxCell id="6sGDjz0e17xrkzqmoAEd-38" value="" style="group" vertex="1" connectable="0" parent="1">
          <mxGeometry x="790" y="250" width="100" height="80" as="geometry" />
        </mxCell>
        <mxCell id="6sGDjz0e17xrkzqmoAEd-29" value="&lt;font style=&quot;font-size: 30px;&quot;&gt;PA&lt;/font&gt;" style="verticalLabelPosition=middle;shadow=0;dashed=0;align=center;html=1;verticalAlign=middle;strokeWidth=1;shape=ellipse;aspect=fixed;fontSize=50;fillColor=none;" vertex="1" parent="6sGDjz0e17xrkzqmoAEd-38">
          <mxGeometry x="20" width="60" height="60" as="geometry" />
        </mxCell>
        <mxCell id="6sGDjz0e17xrkzqmoAEd-31" value="" style="endArrow=open;html=1;strokeWidth=1;endFill=0;endSize=20;rounded=0;" edge="1" parent="6sGDjz0e17xrkzqmoAEd-38">
          <mxGeometry width="100" relative="1" as="geometry">
            <mxPoint y="30" as="sourcePoint" />
            <mxPoint y="80" as="targetPoint" />
          </mxGeometry>
        </mxCell>
        <mxCell id="6sGDjz0e17xrkzqmoAEd-32" value="" style="endArrow=open;html=1;strokeWidth=1;endFill=0;endSize=20;rounded=0;" edge="1" parent="6sGDjz0e17xrkzqmoAEd-38">
          <mxGeometry width="100" relative="1" as="geometry">
            <mxPoint x="100" y="30" as="sourcePoint" />
            <mxPoint x="100" y="80" as="targetPoint" />
          </mxGeometry>
        </mxCell>
        <mxCell id="6sGDjz0e17xrkzqmoAEd-33" value="" style="endArrow=none;html=1;rounded=0;fontSize=30;entryX=0;entryY=0.5;entryDx=0;entryDy=0;" edge="1" parent="6sGDjz0e17xrkzqmoAEd-38" target="6sGDjz0e17xrkzqmoAEd-29">
          <mxGeometry width="50" height="50" relative="1" as="geometry">
            <mxPoint y="30" as="sourcePoint" />
            <mxPoint x="50" y="-20" as="targetPoint" />
          </mxGeometry>
        </mxCell>
        <mxCell id="6sGDjz0e17xrkzqmoAEd-34" value="" style="endArrow=none;html=1;rounded=0;fontSize=30;exitX=1;exitY=0.5;exitDx=0;exitDy=0;" edge="1" parent="6sGDjz0e17xrkzqmoAEd-38" source="6sGDjz0e17xrkzqmoAEd-29">
          <mxGeometry width="50" height="50" relative="1" as="geometry">
            <mxPoint x="80" y="29.870000000000005" as="sourcePoint" />
            <mxPoint x="100" y="30" as="targetPoint" />
          </mxGeometry>
        </mxCell>
        <mxCell id="6sGDjz0e17xrkzqmoAEd-45" value="" style="group" vertex="1" connectable="0" parent="1">
          <mxGeometry x="343" y="41" width="57.5" height="80" as="geometry" />
        </mxCell>
        <mxCell id="6sGDjz0e17xrkzqmoAEd-44" value="" style="group" vertex="1" connectable="0" parent="6sGDjz0e17xrkzqmoAEd-45">
          <mxGeometry x="2.5" width="55" height="80" as="geometry" />
        </mxCell>
        <mxCell id="6sGDjz0e17xrkzqmoAEd-39" value="&lt;font style=&quot;font-size: 20px;&quot;&gt;R&lt;sub&gt;1&lt;/sub&gt;&lt;/font&gt;" style="text;html=1;align=center;verticalAlign=middle;resizable=0;points=[];autosize=1;strokeColor=none;fillColor=none;fontSize=30;" vertex="1" parent="6sGDjz0e17xrkzqmoAEd-44">
          <mxGeometry width="50" height="50" as="geometry" />
        </mxCell>
        <mxCell id="6sGDjz0e17xrkzqmoAEd-41" value="" style="endArrow=none;html=1;rounded=0;fontSize=20;" edge="1" parent="6sGDjz0e17xrkzqmoAEd-44">
          <mxGeometry width="50" height="50" relative="1" as="geometry">
            <mxPoint x="5" y="40" as="sourcePoint" />
            <mxPoint x="45" y="40" as="targetPoint" />
          </mxGeometry>
        </mxCell>
        <mxCell id="6sGDjz0e17xrkzqmoAEd-43" value="&lt;font style=&quot;font-size: 20px;&quot;&gt;50&lt;/font&gt;" style="text;html=1;align=center;verticalAlign=middle;resizable=0;points=[];autosize=1;strokeColor=none;fillColor=none;fontSize=30;" vertex="1" parent="6sGDjz0e17xrkzqmoAEd-45">
          <mxGeometry y="30" width="50" height="50" as="geometry" />
        </mxCell>
        <mxCell id="6sGDjz0e17xrkzqmoAEd-46" value="" style="group" vertex="1" connectable="0" parent="1">
          <mxGeometry x="564" y="42" width="57.5" height="80" as="geometry" />
        </mxCell>
        <mxCell id="6sGDjz0e17xrkzqmoAEd-47" value="" style="group" vertex="1" connectable="0" parent="6sGDjz0e17xrkzqmoAEd-46">
          <mxGeometry x="2.5" width="55" height="80" as="geometry" />
        </mxCell>
        <mxCell id="6sGDjz0e17xrkzqmoAEd-48" value="&lt;font style=&quot;font-size: 20px;&quot;&gt;R&lt;sub&gt;2&lt;/sub&gt;&lt;/font&gt;" style="text;html=1;align=center;verticalAlign=middle;resizable=0;points=[];autosize=1;strokeColor=none;fillColor=none;fontSize=30;" vertex="1" parent="6sGDjz0e17xrkzqmoAEd-47">
          <mxGeometry width="50" height="50" as="geometry" />
        </mxCell>
        <mxCell id="6sGDjz0e17xrkzqmoAEd-49" value="" style="endArrow=none;html=1;rounded=0;fontSize=20;" edge="1" parent="6sGDjz0e17xrkzqmoAEd-47">
          <mxGeometry width="50" height="50" relative="1" as="geometry">
            <mxPoint x="5" y="40" as="sourcePoint" />
            <mxPoint x="45" y="40" as="targetPoint" />
          </mxGeometry>
        </mxCell>
        <mxCell id="6sGDjz0e17xrkzqmoAEd-50" value="&lt;font style=&quot;font-size: 20px;&quot;&gt;35&lt;/font&gt;" style="text;html=1;align=center;verticalAlign=middle;resizable=0;points=[];autosize=1;strokeColor=none;fillColor=none;fontSize=30;" vertex="1" parent="6sGDjz0e17xrkzqmoAEd-46">
          <mxGeometry y="30" width="50" height="50" as="geometry" />
        </mxCell>
        <mxCell id="6sGDjz0e17xrkzqmoAEd-51" value="" style="group" vertex="1" connectable="0" parent="1">
          <mxGeometry x="490" y="160" width="57.5" height="80" as="geometry" />
        </mxCell>
        <mxCell id="6sGDjz0e17xrkzqmoAEd-52" value="" style="group" vertex="1" connectable="0" parent="6sGDjz0e17xrkzqmoAEd-51">
          <mxGeometry x="2.5" width="55" height="80" as="geometry" />
        </mxCell>
        <mxCell id="6sGDjz0e17xrkzqmoAEd-53" value="&lt;font style=&quot;font-size: 20px;&quot;&gt;R&lt;sub&gt;3&lt;/sub&gt;&lt;/font&gt;" style="text;html=1;align=center;verticalAlign=middle;resizable=0;points=[];autosize=1;strokeColor=none;fillColor=none;fontSize=30;" vertex="1" parent="6sGDjz0e17xrkzqmoAEd-52">
          <mxGeometry width="50" height="50" as="geometry" />
        </mxCell>
        <mxCell id="6sGDjz0e17xrkzqmoAEd-54" value="" style="endArrow=none;html=1;rounded=0;fontSize=20;" edge="1" parent="6sGDjz0e17xrkzqmoAEd-52">
          <mxGeometry width="50" height="50" relative="1" as="geometry">
            <mxPoint x="5" y="40" as="sourcePoint" />
            <mxPoint x="45" y="40" as="targetPoint" />
          </mxGeometry>
        </mxCell>
        <mxCell id="6sGDjz0e17xrkzqmoAEd-55" value="&lt;font style=&quot;font-size: 20px;&quot;&gt;40&lt;/font&gt;" style="text;html=1;align=center;verticalAlign=middle;resizable=0;points=[];autosize=1;strokeColor=none;fillColor=none;fontSize=30;" vertex="1" parent="6sGDjz0e17xrkzqmoAEd-51">
          <mxGeometry y="30" width="50" height="50" as="geometry" />
        </mxCell>
        <mxCell id="6sGDjz0e17xrkzqmoAEd-56" value="" style="group" vertex="1" connectable="0" parent="1">
          <mxGeometry x="310" y="210" width="57.5" height="80" as="geometry" />
        </mxCell>
        <mxCell id="6sGDjz0e17xrkzqmoAEd-57" value="" style="group" vertex="1" connectable="0" parent="6sGDjz0e17xrkzqmoAEd-56">
          <mxGeometry x="2.5" width="55" height="80" as="geometry" />
        </mxCell>
        <mxCell id="6sGDjz0e17xrkzqmoAEd-58" value="&lt;font style=&quot;font-size: 20px;&quot;&gt;E&lt;sub&gt;1&lt;/sub&gt;&lt;/font&gt;" style="text;html=1;align=center;verticalAlign=middle;resizable=0;points=[];autosize=1;strokeColor=none;fillColor=none;fontSize=30;" vertex="1" parent="6sGDjz0e17xrkzqmoAEd-57">
          <mxGeometry width="50" height="50" as="geometry" />
        </mxCell>
        <mxCell id="6sGDjz0e17xrkzqmoAEd-59" value="" style="endArrow=none;html=1;rounded=0;fontSize=20;" edge="1" parent="6sGDjz0e17xrkzqmoAEd-57">
          <mxGeometry width="50" height="50" relative="1" as="geometry">
            <mxPoint x="5" y="40" as="sourcePoint" />
            <mxPoint x="45" y="40" as="targetPoint" />
          </mxGeometry>
        </mxCell>
        <mxCell id="6sGDjz0e17xrkzqmoAEd-60" value="&lt;font style=&quot;font-size: 20px;&quot;&gt;30&lt;/font&gt;" style="text;html=1;align=center;verticalAlign=middle;resizable=0;points=[];autosize=1;strokeColor=none;fillColor=none;fontSize=30;" vertex="1" parent="6sGDjz0e17xrkzqmoAEd-56">
          <mxGeometry y="30" width="50" height="50" as="geometry" />
        </mxCell>
        <mxCell id="6sGDjz0e17xrkzqmoAEd-61" value="" style="group" vertex="1" connectable="0" parent="1">
          <mxGeometry x="590" y="210" width="57.5" height="80" as="geometry" />
        </mxCell>
        <mxCell id="6sGDjz0e17xrkzqmoAEd-62" value="" style="group" vertex="1" connectable="0" parent="6sGDjz0e17xrkzqmoAEd-61">
          <mxGeometry x="2.5" width="55" height="80" as="geometry" />
        </mxCell>
        <mxCell id="6sGDjz0e17xrkzqmoAEd-63" value="&lt;font style=&quot;font-size: 20px;&quot;&gt;E&lt;sub&gt;2&lt;/sub&gt;&lt;/font&gt;" style="text;html=1;align=center;verticalAlign=middle;resizable=0;points=[];autosize=1;strokeColor=none;fillColor=none;fontSize=30;" vertex="1" parent="6sGDjz0e17xrkzqmoAEd-62">
          <mxGeometry width="50" height="50" as="geometry" />
        </mxCell>
        <mxCell id="6sGDjz0e17xrkzqmoAEd-64" value="" style="endArrow=none;html=1;rounded=0;fontSize=20;" edge="1" parent="6sGDjz0e17xrkzqmoAEd-62">
          <mxGeometry width="50" height="50" relative="1" as="geometry">
            <mxPoint x="5" y="40" as="sourcePoint" />
            <mxPoint x="45" y="40" as="targetPoint" />
          </mxGeometry>
        </mxCell>
        <mxCell id="6sGDjz0e17xrkzqmoAEd-65" value="&lt;font style=&quot;font-size: 20px;&quot;&gt;12&lt;/font&gt;" style="text;html=1;align=center;verticalAlign=middle;resizable=0;points=[];autosize=1;strokeColor=none;fillColor=none;fontSize=30;" vertex="1" parent="6sGDjz0e17xrkzqmoAEd-61">
          <mxGeometry y="30" width="50" height="50" as="geometry" />
        </mxCell>
        <mxCell id="6sGDjz0e17xrkzqmoAEd-82" style="edgeStyle=orthogonalEdgeStyle;rounded=0;orthogonalLoop=1;jettySize=auto;html=1;exitX=1;exitY=0.5;exitDx=0;exitDy=0;exitPerimeter=0;entryX=0;entryY=0.5;entryDx=0;entryDy=0;fontSize=20;endArrow=none;endFill=0;" edge="1" parent="1" source="6sGDjz0e17xrkzqmoAEd-66" target="6sGDjz0e17xrkzqmoAEd-81">
          <mxGeometry relative="1" as="geometry" />
        </mxCell>
        <mxCell id="6sGDjz0e17xrkzqmoAEd-92" style="edgeStyle=orthogonalEdgeStyle;rounded=0;orthogonalLoop=1;jettySize=auto;html=1;exitX=0;exitY=0.5;exitDx=0;exitDy=0;exitPerimeter=0;entryX=0;entryY=0.5;entryDx=0;entryDy=0;fontSize=20;endArrow=none;endFill=0;" edge="1" parent="1" source="6sGDjz0e17xrkzqmoAEd-66" target="6sGDjz0e17xrkzqmoAEd-80">
          <mxGeometry relative="1" as="geometry" />
        </mxCell>
        <mxCell id="6sGDjz0e17xrkzqmoAEd-66" value="" style="pointerEvents=1;verticalLabelPosition=bottom;shadow=0;dashed=0;align=center;html=1;verticalAlign=top;shape=mxgraph.electrical.resistors.resistor_1;fillColor=none;rotation=90;" vertex="1" parent="1">
          <mxGeometry x="150" y="630" width="100" height="20" as="geometry" />
        </mxCell>
        <mxCell id="6sGDjz0e17xrkzqmoAEd-67" value="" style="pointerEvents=1;verticalLabelPosition=bottom;shadow=0;dashed=0;align=center;html=1;verticalAlign=top;shape=mxgraph.electrical.resistors.resistor_1;fillColor=none;rotation=90;" vertex="1" parent="1">
          <mxGeometry x="660" y="610" width="100" height="20" as="geometry" />
        </mxCell>
        <mxCell id="6sGDjz0e17xrkzqmoAEd-93" style="edgeStyle=orthogonalEdgeStyle;rounded=0;orthogonalLoop=1;jettySize=auto;html=1;exitX=1;exitY=0.5;exitDx=0;exitDy=0;exitPerimeter=0;entryX=0;entryY=0.5;entryDx=0;entryDy=0;entryPerimeter=0;fontSize=20;endArrow=none;endFill=0;" edge="1" parent="1" source="6sGDjz0e17xrkzqmoAEd-68" target="6sGDjz0e17xrkzqmoAEd-67">
          <mxGeometry relative="1" as="geometry">
            <Array as="points">
              <mxPoint x="710" y="520" />
              <mxPoint x="710" y="570" />
            </Array>
          </mxGeometry>
        </mxCell>
        <mxCell id="6sGDjz0e17xrkzqmoAEd-68" value="" style="pointerEvents=1;verticalLabelPosition=bottom;shadow=0;dashed=0;align=center;html=1;verticalAlign=top;shape=mxgraph.electrical.resistors.resistor_1;fillColor=none;rotation=0;" vertex="1" parent="1">
          <mxGeometry x="560" y="510" width="100" height="20" as="geometry" />
        </mxCell>
        <mxCell id="6sGDjz0e17xrkzqmoAEd-84" style="edgeStyle=orthogonalEdgeStyle;rounded=0;orthogonalLoop=1;jettySize=auto;html=1;exitX=1;exitY=0.5;exitDx=0;exitDy=0;exitPerimeter=0;fontSize=20;endArrow=none;endFill=0;" edge="1" parent="1" source="6sGDjz0e17xrkzqmoAEd-70">
          <mxGeometry relative="1" as="geometry">
            <mxPoint x="400.00900900900905" y="880" as="targetPoint" />
          </mxGeometry>
        </mxCell>
        <mxCell id="6sGDjz0e17xrkzqmoAEd-70" value="" style="pointerEvents=1;verticalLabelPosition=bottom;shadow=0;dashed=0;align=center;html=1;verticalAlign=top;shape=mxgraph.electrical.resistors.resistor_1;fillColor=none;rotation=90;" vertex="1" parent="1">
          <mxGeometry x="350" y="810" width="100" height="20" as="geometry" />
        </mxCell>
        <mxCell id="6sGDjz0e17xrkzqmoAEd-91" style="edgeStyle=orthogonalEdgeStyle;rounded=0;orthogonalLoop=1;jettySize=auto;html=1;exitX=1;exitY=0.5;exitDx=0;exitDy=0;exitPerimeter=0;entryX=0;entryY=0.5;entryDx=0;entryDy=0;entryPerimeter=0;fontSize=20;endArrow=none;endFill=0;" edge="1" parent="1" source="6sGDjz0e17xrkzqmoAEd-71" target="6sGDjz0e17xrkzqmoAEd-68">
          <mxGeometry relative="1" as="geometry" />
        </mxCell>
        <mxCell id="6sGDjz0e17xrkzqmoAEd-71" value="" style="pointerEvents=1;verticalLabelPosition=bottom;shadow=0;dashed=0;align=center;html=1;verticalAlign=top;shape=mxgraph.electrical.signal_sources.source;aspect=fixed;points=[[0.5,0,0],[1,0.5,0],[0.5,1,0],[0,0.5,0]];elSignalType=dc1;fillColor=none;rotation=0;" vertex="1" parent="1">
          <mxGeometry x="450" y="490" width="60" height="60" as="geometry" />
        </mxCell>
        <mxCell id="6sGDjz0e17xrkzqmoAEd-88" style="edgeStyle=orthogonalEdgeStyle;rounded=0;orthogonalLoop=1;jettySize=auto;html=1;exitX=0;exitY=0.5;exitDx=0;exitDy=0;exitPerimeter=0;fontSize=20;endArrow=none;endFill=0;" edge="1" parent="1" source="6sGDjz0e17xrkzqmoAEd-72" target="6sGDjz0e17xrkzqmoAEd-79">
          <mxGeometry relative="1" as="geometry" />
        </mxCell>
        <mxCell id="6sGDjz0e17xrkzqmoAEd-90" style="edgeStyle=orthogonalEdgeStyle;rounded=0;orthogonalLoop=1;jettySize=auto;html=1;exitX=1;exitY=0.5;exitDx=0;exitDy=0;exitPerimeter=0;fontSize=20;endArrow=none;endFill=0;" edge="1" parent="1" source="6sGDjz0e17xrkzqmoAEd-72">
          <mxGeometry relative="1" as="geometry">
            <mxPoint x="400" y="520" as="targetPoint" />
          </mxGeometry>
        </mxCell>
        <mxCell id="6sGDjz0e17xrkzqmoAEd-72" value="" style="pointerEvents=1;verticalLabelPosition=bottom;shadow=0;dashed=0;align=center;html=1;verticalAlign=top;shape=mxgraph.electrical.signal_sources.source;aspect=fixed;points=[[0.5,0,0],[1,0.5,0],[0.5,1,0],[0,0.5,0]];elSignalType=dc1;fillColor=none;rotation=-90;" vertex="1" parent="1">
          <mxGeometry x="370" y="590" width="60" height="60" as="geometry" />
        </mxCell>
        <mxCell id="6sGDjz0e17xrkzqmoAEd-87" style="edgeStyle=orthogonalEdgeStyle;rounded=0;orthogonalLoop=1;jettySize=auto;html=1;exitX=0.5;exitY=1;exitDx=0;exitDy=0;entryX=0;entryY=0.5;entryDx=0;entryDy=0;entryPerimeter=0;fontSize=20;endArrow=none;endFill=0;" edge="1" parent="1" source="6sGDjz0e17xrkzqmoAEd-79" target="6sGDjz0e17xrkzqmoAEd-70">
          <mxGeometry relative="1" as="geometry" />
        </mxCell>
        <mxCell id="6sGDjz0e17xrkzqmoAEd-79" value="&lt;font style=&quot;font-size: 30px;&quot;&gt;PA&lt;/font&gt;&lt;font size=&quot;1&quot;&gt;&lt;sub style=&quot;font-size: 20px;&quot;&gt;1&lt;/sub&gt;&lt;/font&gt;" style="verticalLabelPosition=middle;shadow=0;dashed=0;align=center;html=1;verticalAlign=middle;strokeWidth=1;shape=ellipse;aspect=fixed;fontSize=50;fillColor=none;" vertex="1" parent="1">
          <mxGeometry x="370" y="680" width="60" height="60" as="geometry" />
        </mxCell>
        <mxCell id="6sGDjz0e17xrkzqmoAEd-89" style="edgeStyle=orthogonalEdgeStyle;rounded=0;orthogonalLoop=1;jettySize=auto;html=1;exitX=1;exitY=0.5;exitDx=0;exitDy=0;entryX=0;entryY=0.5;entryDx=0;entryDy=0;entryPerimeter=0;fontSize=20;endArrow=none;endFill=0;" edge="1" parent="1" source="6sGDjz0e17xrkzqmoAEd-80" target="6sGDjz0e17xrkzqmoAEd-71">
          <mxGeometry relative="1" as="geometry" />
        </mxCell>
        <mxCell id="6sGDjz0e17xrkzqmoAEd-80" value="&lt;font style=&quot;font-size: 30px;&quot;&gt;PA&lt;/font&gt;&lt;font size=&quot;1&quot;&gt;&lt;sub style=&quot;font-size: 20px;&quot;&gt;4&lt;/sub&gt;&lt;/font&gt;" style="verticalLabelPosition=middle;shadow=0;dashed=0;align=center;html=1;verticalAlign=middle;strokeWidth=1;shape=ellipse;aspect=fixed;fontSize=50;fillColor=none;" vertex="1" parent="1">
          <mxGeometry x="240" y="490" width="60" height="60" as="geometry" />
        </mxCell>
        <mxCell id="6sGDjz0e17xrkzqmoAEd-94" style="edgeStyle=orthogonalEdgeStyle;rounded=0;orthogonalLoop=1;jettySize=auto;html=1;exitX=1;exitY=0.5;exitDx=0;exitDy=0;entryX=1;entryY=0.5;entryDx=0;entryDy=0;entryPerimeter=0;fontSize=20;endArrow=none;endFill=0;" edge="1" parent="1" source="6sGDjz0e17xrkzqmoAEd-81" target="6sGDjz0e17xrkzqmoAEd-67">
          <mxGeometry relative="1" as="geometry">
            <Array as="points">
              <mxPoint x="710" y="880" />
              <mxPoint x="710" y="670" />
            </Array>
          </mxGeometry>
        </mxCell>
        <mxCell id="6sGDjz0e17xrkzqmoAEd-81" value="&lt;font style=&quot;font-size: 30px;&quot;&gt;PA&lt;/font&gt;" style="verticalLabelPosition=middle;shadow=0;dashed=0;align=center;html=1;verticalAlign=middle;strokeWidth=1;shape=ellipse;aspect=fixed;fontSize=50;fillColor=none;" vertex="1" parent="1">
          <mxGeometry x="570" y="850" width="60" height="60" as="geometry" />
        </mxCell>
        <mxCell id="6sGDjz0e17xrkzqmoAEd-95" value="" style="pointerEvents=1;verticalLabelPosition=bottom;shadow=0;dashed=0;align=center;html=1;verticalAlign=top;shape=mxgraph.electrical.signal_sources.signal_ground;fontSize=20;fillColor=none;" vertex="1" parent="1">
          <mxGeometry x="377.5" y="880" width="45" height="30" as="geometry" />
        </mxCell>
        <mxCell id="6sGDjz0e17xrkzqmoAEd-96" value="" style="group;rotation=90;" vertex="1" connectable="0" parent="1">
          <mxGeometry x="410" y="740" width="20" height="40" as="geometry" />
        </mxCell>
        <mxCell id="6sGDjz0e17xrkzqmoAEd-97" value="" style="endArrow=none;html=1;rounded=0;" edge="1" parent="6sGDjz0e17xrkzqmoAEd-96">
          <mxGeometry width="50" height="50" relative="1" as="geometry">
            <mxPoint x="10" y="20" as="sourcePoint" />
            <mxPoint x="30" y="30" as="targetPoint" />
          </mxGeometry>
        </mxCell>
        <mxCell id="6sGDjz0e17xrkzqmoAEd-98" value="" style="endArrow=none;html=1;rounded=0;" edge="1" parent="6sGDjz0e17xrkzqmoAEd-96">
          <mxGeometry width="50" height="50" relative="1" as="geometry">
            <mxPoint x="30" y="10" as="sourcePoint" />
            <mxPoint x="10" y="20" as="targetPoint" />
          </mxGeometry>
        </mxCell>
        <mxCell id="6sGDjz0e17xrkzqmoAEd-99" value="" style="endArrow=none;html=1;rounded=0;" edge="1" parent="6sGDjz0e17xrkzqmoAEd-96">
          <mxGeometry width="50" height="50" relative="1" as="geometry">
            <mxPoint x="-10" y="20" as="sourcePoint" />
            <mxPoint x="10" y="20" as="targetPoint" />
          </mxGeometry>
        </mxCell>
        <mxCell id="6sGDjz0e17xrkzqmoAEd-100" value="" style="group" vertex="1" connectable="0" parent="1">
          <mxGeometry x="530" y="480" width="20" height="40" as="geometry" />
        </mxCell>
        <mxCell id="6sGDjz0e17xrkzqmoAEd-101" value="" style="endArrow=none;html=1;rounded=0;" edge="1" parent="6sGDjz0e17xrkzqmoAEd-100">
          <mxGeometry width="50" height="50" relative="1" as="geometry">
            <mxPoint x="10" y="20" as="sourcePoint" />
            <mxPoint x="20" as="targetPoint" />
          </mxGeometry>
        </mxCell>
        <mxCell id="6sGDjz0e17xrkzqmoAEd-102" value="" style="endArrow=none;html=1;rounded=0;" edge="1" parent="6sGDjz0e17xrkzqmoAEd-100">
          <mxGeometry width="50" height="50" relative="1" as="geometry">
            <mxPoint as="sourcePoint" />
            <mxPoint x="9.999999999999943" y="20" as="targetPoint" />
          </mxGeometry>
        </mxCell>
        <mxCell id="6sGDjz0e17xrkzqmoAEd-103" value="" style="endArrow=none;html=1;rounded=0;" edge="1" parent="6sGDjz0e17xrkzqmoAEd-100">
          <mxGeometry width="50" height="50" relative="1" as="geometry">
            <mxPoint x="10" y="40" as="sourcePoint" />
            <mxPoint x="10" y="20" as="targetPoint" />
          </mxGeometry>
        </mxCell>
        <mxCell id="6sGDjz0e17xrkzqmoAEd-104" value="" style="group" vertex="1" connectable="0" parent="1">
          <mxGeometry x="700" y="480" width="20" height="40" as="geometry" />
        </mxCell>
        <mxCell id="6sGDjz0e17xrkzqmoAEd-105" value="" style="endArrow=none;html=1;rounded=0;" edge="1" parent="6sGDjz0e17xrkzqmoAEd-104">
          <mxGeometry width="50" height="50" relative="1" as="geometry">
            <mxPoint x="10" y="20" as="sourcePoint" />
            <mxPoint x="20" as="targetPoint" />
          </mxGeometry>
        </mxCell>
        <mxCell id="6sGDjz0e17xrkzqmoAEd-106" value="" style="endArrow=none;html=1;rounded=0;" edge="1" parent="6sGDjz0e17xrkzqmoAEd-104">
          <mxGeometry width="50" height="50" relative="1" as="geometry">
            <mxPoint as="sourcePoint" />
            <mxPoint x="9.999999999999943" y="20" as="targetPoint" />
          </mxGeometry>
        </mxCell>
        <mxCell id="6sGDjz0e17xrkzqmoAEd-107" value="" style="endArrow=none;html=1;rounded=0;" edge="1" parent="6sGDjz0e17xrkzqmoAEd-104">
          <mxGeometry width="50" height="50" relative="1" as="geometry">
            <mxPoint x="10" y="40" as="sourcePoint" />
            <mxPoint x="10" y="20" as="targetPoint" />
          </mxGeometry>
        </mxCell>
        <mxCell id="6sGDjz0e17xrkzqmoAEd-108" value="" style="group" vertex="1" connectable="0" parent="1">
          <mxGeometry x="800" y="490" width="100" height="80" as="geometry" />
        </mxCell>
        <mxCell id="6sGDjz0e17xrkzqmoAEd-109" value="" style="endArrow=open;html=1;strokeWidth=1;endFill=0;endSize=20;rounded=0;" edge="1" parent="6sGDjz0e17xrkzqmoAEd-108">
          <mxGeometry width="100" relative="1" as="geometry">
            <mxPoint y="30" as="sourcePoint" />
            <mxPoint y="80" as="targetPoint" />
          </mxGeometry>
        </mxCell>
        <mxCell id="6sGDjz0e17xrkzqmoAEd-110" value="&lt;font style=&quot;font-size: 30px;&quot;&gt;PV&lt;/font&gt;" style="verticalLabelPosition=middle;shadow=0;dashed=0;align=center;html=1;verticalAlign=middle;strokeWidth=1;shape=ellipse;aspect=fixed;fontSize=50;fillColor=none;" vertex="1" parent="6sGDjz0e17xrkzqmoAEd-108">
          <mxGeometry x="20" width="60" height="60" as="geometry" />
        </mxCell>
        <mxCell id="6sGDjz0e17xrkzqmoAEd-112" value="" style="endArrow=none;html=1;rounded=0;fontSize=30;entryX=0;entryY=0.5;entryDx=0;entryDy=0;" edge="1" parent="6sGDjz0e17xrkzqmoAEd-108">
          <mxGeometry width="50" height="50" relative="1" as="geometry">
            <mxPoint y="29.919999999999987" as="sourcePoint" />
            <mxPoint x="20" y="29.919999999999987" as="targetPoint" />
          </mxGeometry>
        </mxCell>
        <mxCell id="6sGDjz0e17xrkzqmoAEd-113" value="" style="endArrow=none;html=1;rounded=0;fontSize=30;entryX=0;entryY=0.5;entryDx=0;entryDy=0;" edge="1" parent="6sGDjz0e17xrkzqmoAEd-108">
          <mxGeometry width="50" height="50" relative="1" as="geometry">
            <mxPoint x="80" y="29.91999999999996" as="sourcePoint" />
            <mxPoint x="100" y="29.91999999999996" as="targetPoint" />
          </mxGeometry>
        </mxCell>
        <mxCell id="6sGDjz0e17xrkzqmoAEd-117" value="" style="endArrow=none;html=1;rounded=0;fontSize=30;" edge="1" parent="1">
          <mxGeometry width="50" height="50" relative="1" as="geometry">
            <mxPoint x="900" y="520" as="sourcePoint" />
            <mxPoint x="900" y="940.1923076923077" as="targetPoint" />
          </mxGeometry>
        </mxCell>
        <mxCell id="6sGDjz0e17xrkzqmoAEd-118" value="" style="endArrow=none;html=1;rounded=0;fontSize=30;entryX=0;entryY=0.5;entryDx=0;entryDy=0;" edge="1" parent="1">
          <mxGeometry width="50" height="50" relative="1" as="geometry">
            <mxPoint x="399.8076923076923" y="940" as="sourcePoint" />
            <mxPoint x="900" y="940" as="targetPoint" />
          </mxGeometry>
        </mxCell>
        <mxCell id="6sGDjz0e17xrkzqmoAEd-119" value="" style="endArrow=none;html=1;rounded=0;fontSize=30;" edge="1" parent="1">
          <mxGeometry width="50" height="50" relative="1" as="geometry">
            <mxPoint x="399.9076923076924" y="910" as="sourcePoint" />
            <mxPoint x="400" y="940" as="targetPoint" />
          </mxGeometry>
        </mxCell>
        <mxCell id="6sGDjz0e17xrkzqmoAEd-120" value="" style="group" vertex="1" connectable="0" parent="1">
          <mxGeometry x="410" y="480" width="20" height="40" as="geometry" />
        </mxCell>
        <mxCell id="6sGDjz0e17xrkzqmoAEd-121" value="" style="endArrow=none;html=1;rounded=0;" edge="1" parent="6sGDjz0e17xrkzqmoAEd-120">
          <mxGeometry width="50" height="50" relative="1" as="geometry">
            <mxPoint x="10" y="20" as="sourcePoint" />
            <mxPoint x="20" as="targetPoint" />
          </mxGeometry>
        </mxCell>
        <mxCell id="6sGDjz0e17xrkzqmoAEd-122" value="" style="endArrow=none;html=1;rounded=0;" edge="1" parent="6sGDjz0e17xrkzqmoAEd-120">
          <mxGeometry width="50" height="50" relative="1" as="geometry">
            <mxPoint as="sourcePoint" />
            <mxPoint x="9.999999999999943" y="20" as="targetPoint" />
          </mxGeometry>
        </mxCell>
        <mxCell id="6sGDjz0e17xrkzqmoAEd-123" value="" style="endArrow=none;html=1;rounded=0;" edge="1" parent="6sGDjz0e17xrkzqmoAEd-120">
          <mxGeometry width="50" height="50" relative="1" as="geometry">
            <mxPoint x="10" y="40" as="sourcePoint" />
            <mxPoint x="10" y="20" as="targetPoint" />
          </mxGeometry>
        </mxCell>
        <mxCell id="6sGDjz0e17xrkzqmoAEd-124" value="" style="group" vertex="1" connectable="0" parent="1">
          <mxGeometry x="410" y="780" width="57.5" height="80" as="geometry" />
        </mxCell>
        <mxCell id="6sGDjz0e17xrkzqmoAEd-125" value="" style="group" vertex="1" connectable="0" parent="6sGDjz0e17xrkzqmoAEd-124">
          <mxGeometry x="2.5" width="55" height="80" as="geometry" />
        </mxCell>
        <mxCell id="6sGDjz0e17xrkzqmoAEd-126" value="&lt;font style=&quot;font-size: 20px;&quot;&gt;R&lt;sub&gt;1&lt;/sub&gt;&lt;/font&gt;" style="text;html=1;align=center;verticalAlign=middle;resizable=0;points=[];autosize=1;strokeColor=none;fillColor=none;fontSize=30;" vertex="1" parent="6sGDjz0e17xrkzqmoAEd-125">
          <mxGeometry width="50" height="50" as="geometry" />
        </mxCell>
        <mxCell id="6sGDjz0e17xrkzqmoAEd-127" value="" style="endArrow=none;html=1;rounded=0;fontSize=20;" edge="1" parent="6sGDjz0e17xrkzqmoAEd-125">
          <mxGeometry width="50" height="50" relative="1" as="geometry">
            <mxPoint x="5" y="40" as="sourcePoint" />
            <mxPoint x="45" y="40" as="targetPoint" />
          </mxGeometry>
        </mxCell>
        <mxCell id="6sGDjz0e17xrkzqmoAEd-128" value="&lt;font style=&quot;font-size: 20px;&quot;&gt;50&lt;/font&gt;" style="text;html=1;align=center;verticalAlign=middle;resizable=0;points=[];autosize=1;strokeColor=none;fillColor=none;fontSize=30;" vertex="1" parent="6sGDjz0e17xrkzqmoAEd-124">
          <mxGeometry y="30" width="50" height="50" as="geometry" />
        </mxCell>
        <mxCell id="6sGDjz0e17xrkzqmoAEd-134" value="" style="group" vertex="1" connectable="0" parent="1">
          <mxGeometry x="580" y="440" width="57.5" height="80" as="geometry" />
        </mxCell>
        <mxCell id="6sGDjz0e17xrkzqmoAEd-135" value="" style="group" vertex="1" connectable="0" parent="6sGDjz0e17xrkzqmoAEd-134">
          <mxGeometry x="2.5" width="55" height="80" as="geometry" />
        </mxCell>
        <mxCell id="6sGDjz0e17xrkzqmoAEd-136" value="&lt;font style=&quot;font-size: 20px;&quot;&gt;R&lt;sub&gt;2&lt;/sub&gt;&lt;/font&gt;" style="text;html=1;align=center;verticalAlign=middle;resizable=0;points=[];autosize=1;strokeColor=none;fillColor=none;fontSize=30;" vertex="1" parent="6sGDjz0e17xrkzqmoAEd-135">
          <mxGeometry width="50" height="50" as="geometry" />
        </mxCell>
        <mxCell id="6sGDjz0e17xrkzqmoAEd-137" value="" style="endArrow=none;html=1;rounded=0;fontSize=20;" edge="1" parent="6sGDjz0e17xrkzqmoAEd-135">
          <mxGeometry width="50" height="50" relative="1" as="geometry">
            <mxPoint x="5" y="40" as="sourcePoint" />
            <mxPoint x="45" y="40" as="targetPoint" />
          </mxGeometry>
        </mxCell>
        <mxCell id="6sGDjz0e17xrkzqmoAEd-138" value="&lt;font style=&quot;font-size: 20px;&quot;&gt;35&lt;/font&gt;" style="text;html=1;align=center;verticalAlign=middle;resizable=0;points=[];autosize=1;strokeColor=none;fillColor=none;fontSize=30;" vertex="1" parent="6sGDjz0e17xrkzqmoAEd-134">
          <mxGeometry y="30" width="50" height="50" as="geometry" />
        </mxCell>
        <mxCell id="6sGDjz0e17xrkzqmoAEd-139" value="" style="group" vertex="1" connectable="0" parent="1">
          <mxGeometry x="210" y="600" width="57.5" height="80" as="geometry" />
        </mxCell>
        <mxCell id="6sGDjz0e17xrkzqmoAEd-140" value="" style="group" vertex="1" connectable="0" parent="6sGDjz0e17xrkzqmoAEd-139">
          <mxGeometry x="2.5" width="55" height="80" as="geometry" />
        </mxCell>
        <mxCell id="6sGDjz0e17xrkzqmoAEd-141" value="&lt;font style=&quot;font-size: 20px;&quot;&gt;R&lt;sub&gt;4&lt;/sub&gt;&lt;/font&gt;" style="text;html=1;align=center;verticalAlign=middle;resizable=0;points=[];autosize=1;strokeColor=none;fillColor=none;fontSize=30;" vertex="1" parent="6sGDjz0e17xrkzqmoAEd-140">
          <mxGeometry width="50" height="50" as="geometry" />
        </mxCell>
        <mxCell id="6sGDjz0e17xrkzqmoAEd-142" value="" style="endArrow=none;html=1;rounded=0;fontSize=20;" edge="1" parent="6sGDjz0e17xrkzqmoAEd-140">
          <mxGeometry width="50" height="50" relative="1" as="geometry">
            <mxPoint x="5" y="40" as="sourcePoint" />
            <mxPoint x="45" y="40" as="targetPoint" />
          </mxGeometry>
        </mxCell>
        <mxCell id="6sGDjz0e17xrkzqmoAEd-143" value="&lt;font style=&quot;font-size: 20px;&quot;&gt;100&lt;/font&gt;" style="text;html=1;align=center;verticalAlign=middle;resizable=0;points=[];autosize=1;strokeColor=none;fillColor=none;fontSize=30;" vertex="1" parent="6sGDjz0e17xrkzqmoAEd-139">
          <mxGeometry x="-5" y="30" width="60" height="50" as="geometry" />
        </mxCell>
        <mxCell id="6sGDjz0e17xrkzqmoAEd-144" value="" style="group" vertex="1" connectable="0" parent="1">
          <mxGeometry x="640" y="580" width="57.5" height="80" as="geometry" />
        </mxCell>
        <mxCell id="6sGDjz0e17xrkzqmoAEd-145" value="" style="group" vertex="1" connectable="0" parent="6sGDjz0e17xrkzqmoAEd-144">
          <mxGeometry x="2.5" width="55" height="80" as="geometry" />
        </mxCell>
        <mxCell id="6sGDjz0e17xrkzqmoAEd-146" value="&lt;font style=&quot;font-size: 20px;&quot;&gt;R&lt;sub&gt;3&lt;/sub&gt;&lt;/font&gt;" style="text;html=1;align=center;verticalAlign=middle;resizable=0;points=[];autosize=1;strokeColor=none;fillColor=none;fontSize=30;" vertex="1" parent="6sGDjz0e17xrkzqmoAEd-145">
          <mxGeometry width="50" height="50" as="geometry" />
        </mxCell>
        <mxCell id="6sGDjz0e17xrkzqmoAEd-147" value="" style="endArrow=none;html=1;rounded=0;fontSize=20;" edge="1" parent="6sGDjz0e17xrkzqmoAEd-145">
          <mxGeometry width="50" height="50" relative="1" as="geometry">
            <mxPoint x="5" y="40" as="sourcePoint" />
            <mxPoint x="45" y="40" as="targetPoint" />
          </mxGeometry>
        </mxCell>
        <mxCell id="6sGDjz0e17xrkzqmoAEd-148" value="&lt;font style=&quot;font-size: 20px;&quot;&gt;40&lt;/font&gt;" style="text;html=1;align=center;verticalAlign=middle;resizable=0;points=[];autosize=1;strokeColor=none;fillColor=none;fontSize=30;" vertex="1" parent="6sGDjz0e17xrkzqmoAEd-144">
          <mxGeometry y="30" width="50" height="50" as="geometry" />
        </mxCell>
        <mxCell id="6sGDjz0e17xrkzqmoAEd-149" value="" style="group" vertex="1" connectable="0" parent="1">
          <mxGeometry x="430" y="580" width="57.5" height="80" as="geometry" />
        </mxCell>
        <mxCell id="6sGDjz0e17xrkzqmoAEd-150" value="" style="group" vertex="1" connectable="0" parent="6sGDjz0e17xrkzqmoAEd-149">
          <mxGeometry x="2.5" width="55" height="80" as="geometry" />
        </mxCell>
        <mxCell id="6sGDjz0e17xrkzqmoAEd-151" value="&lt;font style=&quot;font-size: 20px;&quot;&gt;E&lt;sub&gt;1&lt;/sub&gt;&lt;/font&gt;" style="text;html=1;align=center;verticalAlign=middle;resizable=0;points=[];autosize=1;strokeColor=none;fillColor=none;fontSize=30;" vertex="1" parent="6sGDjz0e17xrkzqmoAEd-150">
          <mxGeometry width="50" height="50" as="geometry" />
        </mxCell>
        <mxCell id="6sGDjz0e17xrkzqmoAEd-152" value="" style="endArrow=none;html=1;rounded=0;fontSize=20;" edge="1" parent="6sGDjz0e17xrkzqmoAEd-150">
          <mxGeometry width="50" height="50" relative="1" as="geometry">
            <mxPoint x="5" y="40" as="sourcePoint" />
            <mxPoint x="45" y="40" as="targetPoint" />
          </mxGeometry>
        </mxCell>
        <mxCell id="6sGDjz0e17xrkzqmoAEd-153" value="&lt;font style=&quot;font-size: 20px;&quot;&gt;30&lt;/font&gt;" style="text;html=1;align=center;verticalAlign=middle;resizable=0;points=[];autosize=1;strokeColor=none;fillColor=none;fontSize=30;" vertex="1" parent="6sGDjz0e17xrkzqmoAEd-149">
          <mxGeometry y="30" width="50" height="50" as="geometry" />
        </mxCell>
        <mxCell id="6sGDjz0e17xrkzqmoAEd-154" value="" style="group" vertex="1" connectable="0" parent="1">
          <mxGeometry x="453" y="421" width="57.5" height="80" as="geometry" />
        </mxCell>
        <mxCell id="6sGDjz0e17xrkzqmoAEd-155" value="" style="group" vertex="1" connectable="0" parent="6sGDjz0e17xrkzqmoAEd-154">
          <mxGeometry x="2.5" width="55" height="80" as="geometry" />
        </mxCell>
        <mxCell id="6sGDjz0e17xrkzqmoAEd-156" value="&lt;font style=&quot;font-size: 20px;&quot;&gt;E&lt;sub&gt;2&lt;/sub&gt;&lt;/font&gt;" style="text;html=1;align=center;verticalAlign=middle;resizable=0;points=[];autosize=1;strokeColor=none;fillColor=none;fontSize=30;" vertex="1" parent="6sGDjz0e17xrkzqmoAEd-155">
          <mxGeometry width="50" height="50" as="geometry" />
        </mxCell>
        <mxCell id="6sGDjz0e17xrkzqmoAEd-157" value="" style="endArrow=none;html=1;rounded=0;fontSize=20;" edge="1" parent="6sGDjz0e17xrkzqmoAEd-155">
          <mxGeometry width="50" height="50" relative="1" as="geometry">
            <mxPoint x="5" y="40" as="sourcePoint" />
            <mxPoint x="45" y="40" as="targetPoint" />
          </mxGeometry>
        </mxCell>
        <mxCell id="6sGDjz0e17xrkzqmoAEd-158" value="&lt;font style=&quot;font-size: 20px;&quot;&gt;12&lt;/font&gt;" style="text;html=1;align=center;verticalAlign=middle;resizable=0;points=[];autosize=1;strokeColor=none;fillColor=none;fontSize=30;" vertex="1" parent="6sGDjz0e17xrkzqmoAEd-154">
          <mxGeometry y="30" width="50" height="50" as="geometry" />
        </mxCell>
      </root>
    </mxGraphModel>
  </diagram>
</mxfile>
